<svg width="50" height="50" viewBox="0 0 50 50" fill="none" xmlns="http://www.w3.org/2000/svg">
<path d="M12.1326 28.697L15.2541 25.6553C15.4579 25.457 15.5311 25.16 15.4435 24.8889C15.3553 24.6184 15.1216 24.4211 14.8401 24.3802L10.5268 23.7529L8.59711 19.8462C8.47156 19.5911 8.21147 19.4297 7.92748 19.4297C7.64348 19.4297 7.3834 19.5911 7.25734 19.8457L5.32566 23.7529L1.01438 24.3802C0.732374 24.4211 0.498699 24.6184 0.41051 24.8889C0.32282 25.159 0.396061 25.4565 0.599343 25.6553L3.71933 28.697L2.98492 32.9929C2.93709 33.2729 3.05219 33.5564 3.28237 33.7239C3.51306 33.8913 3.81749 33.9137 4.0696 33.7807L7.92698 31.7523L11.7844 33.7807C11.894 33.838 12.0131 33.8664 12.1321 33.8664C12.2871 33.8664 12.4411 33.818 12.5716 33.7239C12.8018 33.5564 12.9169 33.2734 12.869 32.9924L12.1326 28.697ZM10.8078 27.9008C10.6314 28.0727 10.5512 28.3199 10.5926 28.5625L11.1396 31.7523L8.27475 30.2461C8.05652 30.132 7.79694 30.132 7.57921 30.2461L4.71332 31.7533L5.2589 28.5625C5.30025 28.3204 5.22003 28.0732 5.04416 27.9013L2.72684 25.6418L5.92903 25.1759C6.17217 25.1406 6.38243 24.9881 6.49155 24.7674L7.92698 21.8641L9.36042 24.7669C9.46903 24.9876 9.67979 25.1401 9.92293 25.1754L13.1261 25.6413L10.8078 27.9008Z" fill="#4B7551"/>
<path d="M14.8917 28.3619C14.4901 28.2698 14.09 28.5284 14.0018 28.9319C13.9137 29.3355 14.1688 29.7336 14.5723 29.8218C14.6745 29.8442 24.8087 32.1666 28.0174 41.7563C28.122 42.0692 28.4135 42.2665 28.7264 42.2665C28.8046 42.2665 28.8848 42.2545 28.9635 42.2281C29.3552 42.0966 29.5664 41.6736 29.4354 41.2825C25.9596 30.896 15.3416 28.4601 14.8917 28.3619Z" fill="#4B7551"/>
<path d="M31.549 36.3222C24.1192 31.5495 26.8082 18.618 26.8361 18.488C26.9233 18.0844 26.6667 17.6868 26.2636 17.5996C25.8645 17.5139 25.4634 17.768 25.3757 18.1716C25.3449 18.3136 24.6254 21.6972 24.8939 25.7708C25.2557 31.2715 27.278 35.3546 30.7413 37.5793C30.8664 37.6595 31.0059 37.6979 31.1449 37.6979C31.3905 37.6979 31.6317 37.5768 31.7742 37.3546C31.9974 37.0073 31.8967 36.5449 31.549 36.3222Z" fill="#4B7551"/>
<path d="M23.8549 16.5143L26.7501 16.1257L28.7072 18.2906C28.8507 18.4495 29.053 18.5367 29.2613 18.5367C29.3295 18.5367 29.3978 18.5272 29.4656 18.5083C29.7391 18.4306 29.9449 18.2044 29.9962 17.9243L30.5233 15.053L33.1909 13.8552C33.4505 13.7386 33.6214 13.485 33.6319 13.201C33.6423 12.9165 33.4905 12.6509 33.2403 12.5159L30.6704 11.1288L30.3569 8.22399C30.326 7.94149 30.1382 7.70034 29.8706 7.60218C29.6031 7.50353 29.3041 7.56631 29.0979 7.76312L26.9829 9.77852L24.124 9.17813C23.846 9.11834 23.5579 9.22447 23.3825 9.44818C23.2067 9.6719 23.1738 9.97632 23.2968 10.2329L24.5594 12.8667L23.1075 15.4027C22.966 15.6494 22.9775 15.9548 23.1359 16.1914C23.2943 16.4266 23.5744 16.5512 23.8549 16.5143ZM26.0765 12.5742L25.2989 10.9524L27.0601 11.3221C27.3007 11.3724 27.5508 11.3012 27.7297 11.1318L29.0331 9.88963L29.2264 11.6798C29.2528 11.9245 29.3978 12.1402 29.614 12.2573L31.1974 13.1118L29.5533 13.8502C29.329 13.9508 29.1686 14.1551 29.1243 14.3968L28.7999 16.164L27.5953 14.8312C27.4528 14.6733 27.2509 14.5851 27.0412 14.5851C27.0082 14.5851 26.975 14.5871 26.942 14.5916L25.1568 14.8312L26.0511 13.2682C26.1727 13.055 26.1827 12.7954 26.0765 12.5742Z" fill="#4B7551"/>
<path d="M49.3756 18.8408C49.2511 18.5852 48.9915 18.4222 48.7075 18.4207L46.6931 18.4108L45.5636 16.7476C45.4036 16.5125 45.1241 16.3899 44.8421 16.4273C44.5606 16.4666 44.3254 16.6624 44.2358 16.9325L43.6025 18.8428L41.6688 19.4083C41.3958 19.488 41.1915 19.7162 41.1422 19.9962C41.0929 20.2762 41.2074 20.5602 41.4366 20.7281L43.0599 21.9174L42.9966 23.9313C42.9872 24.2158 43.1406 24.4804 43.3917 24.6144C43.5023 24.6732 43.6229 24.7026 43.7435 24.7026C43.897 24.7026 44.0494 24.6553 44.179 24.5626L45.8147 23.3893L47.708 24.0689C47.9751 24.165 48.2745 24.1012 48.4798 23.9029C48.6841 23.7056 48.7593 23.4087 48.6726 23.1376L48.0598 21.2179L49.2949 19.626C49.4683 19.4013 49.5002 19.0969 49.3756 18.8408ZM46.5157 21.2981L46.7877 22.1501L45.9502 21.8497C45.719 21.7665 45.4619 21.8023 45.2621 21.9458L44.5377 22.465L44.5661 21.5712C44.5741 21.3245 44.4595 21.0903 44.2612 20.9449L43.5422 20.4177L44.3982 20.1671C44.6339 20.0983 44.8207 19.918 44.8979 19.6853L45.1779 18.8403L45.6777 19.5762C45.8162 19.78 46.0459 19.9025 46.292 19.9035L47.1839 19.908L46.6368 20.613C46.4863 20.8073 46.441 21.0639 46.5157 21.2981Z" fill="#4B7551"/>
<path d="M40.2967 22.299C40.1657 22.2875 36.9859 22.0534 34.4175 24.4165C32.3592 26.3109 31.3154 29.2779 31.3154 33.2365C31.3154 33.649 31.6502 33.9839 32.0628 33.9839C32.4753 33.9839 32.8101 33.649 32.8101 33.2365C32.8101 29.7244 33.6861 27.1325 35.4135 25.5316C37.4891 23.6079 40.1477 23.7877 40.1756 23.7887C40.5922 23.8251 40.9454 23.5162 40.9798 23.1056C41.0137 22.6946 40.7083 22.3329 40.2967 22.299Z" fill="#4B7551"/>
</svg>
