<svg width="59" height="80" viewBox="0 0 59 80" fill="none" xmlns="http://www.w3.org/2000/svg">
<path d="M30.7263 67.6596C30.7669 67.6106 30.8443 67.5169 30.9559 67.3805C31.1412 67.1543 31.3559 66.89 31.5975 66.5899C32.2868 65.7337 33.0546 64.7615 33.8812 63.6916C36.2428 60.6346 38.6045 57.4044 40.8102 54.145C42.4165 51.7714 43.8801 49.4686 45.1689 47.266C48.9045 40.8812 51 35.6628 51 31.9075C51 20.36 41.5974 11 30 11C18.4026 11 9 20.36 9 31.9075C9 35.6628 11.0954 40.8812 14.8311 47.266C16.1198 49.4686 17.5835 51.7714 19.1898 54.145C21.3955 57.4044 23.7572 60.6346 26.1188 63.6916C26.9454 64.7615 27.7132 65.7337 28.4025 66.5899C28.6441 66.89 28.8588 67.1543 29.044 67.3805C29.1557 67.5169 29.2331 67.6106 29.2737 67.6596C29.6511 68.1135 30.3489 68.1135 30.7263 67.6596ZM29.8739 65.4096C29.1922 64.5628 28.4322 63.6005 27.6136 62.5409C25.2746 59.5131 22.9356 56.314 20.754 53.0902C19.1695 50.7489 17.7276 48.4803 16.4611 46.3156C12.885 40.2036 10.8876 35.2295 10.8876 31.9075C10.8876 21.4019 19.4439 12.8843 30 12.8843C40.5561 12.8843 49.1123 21.4019 49.1123 31.9075C49.1123 35.2295 47.115 40.2036 43.5389 46.3156C42.2724 48.4803 40.8304 50.7489 39.246 53.0902C37.0644 56.314 34.7254 59.5131 32.3864 62.5409C31.5677 63.6005 30.8078 64.5628 30.1261 65.4096C30.0832 65.4628 30.0411 65.515 30 65.5659C29.9588 65.515 29.9168 65.4628 29.8739 65.4096Z" fill="#4B7551"/>
<path d="M29.5 40C33.6479 40 37 36.1882 37 31.5C37 26.8118 33.6479 23 29.5 23C25.352 23 22 26.8118 22 31.5C22 36.1882 25.352 40 29.5 40ZM29.5 38.0506C26.3383 38.0506 23.7647 35.124 23.7647 31.5C23.7647 27.876 26.3383 24.9494 29.5 24.9494C32.6617 24.9494 35.2353 27.876 35.2353 31.5C35.2353 35.124 32.6617 38.0506 29.5 38.0506Z" fill="#4B7551"/>
</svg>
