<svg width="60" height="60" viewBox="0 0 60 60" fill="none" xmlns="http://www.w3.org/2000/svg">
<path fill-rule="evenodd" clip-rule="evenodd" d="M23.1325 7.93236C20.5545 8.92196 19.5877 12.6501 20.9732 16.2593C22.3571 19.8645 27.9997 22.5001 27.9997 22.5001C27.9997 22.5001 33.9251 19.8645 35.309 16.2593C36.6944 12.6501 35.7277 8.92196 33.1496 7.93236C31.527 7.30948 29.6528 7.91996 28.1411 9.35793C28.1411 9.35793 24.7551 7.30948 23.1325 7.93236Z" stroke="#4B7551" stroke-width="2" stroke-linecap="round" stroke-linejoin="round"/>
<path d="M31.9244 53.8155C34.2948 55.204 37.0544 56 40 56C48.8366 56 56 48.8366 56 40C56 31.1634 48.8366 24 40 24C31.1634 24 24 31.1634 24 40C24 43.229 24.9565 46.2346 26.6017 48.7489" stroke="#4B7551" stroke-width="2" stroke-linecap="round" stroke-linejoin="round"/>
<path d="M25.1653 27.1485C23.4248 26.4091 21.5102 26 19.5 26C11.4919 26 5 32.4919 5 40.5C5 48.5081 11.4919 55 19.5 55C27.5081 55 34 48.5081 34 40.5C34 37.1794 32.8838 34.1196 31.0062 31.6751" stroke="#4B7551" stroke-width="2" stroke-linecap="round" stroke-linejoin="round"/>
</svg>
